inDegrees=no
num_controls=7
num_derivatives=13
num_iterations=116
num_multipliers=7
num_parameters=0
num_slacks=7
num_states=26
objective=0.542770
objective_accelerations=0.066327
objective_balance=0.003415
objective_effort=0.048512
objective_height=0.415361
objective_ligament=0.009155
solver_duration=1346.897918
status=Solve_Succeeded
success=true
DataType=double
version=3
OpenSimVersion=4.5
endheader
time	/jointset/ground_pelvis/pelvis_tilt/value	/jointset/ground_pelvis/pelvis_tx/value	/jointset/ground_pelvis/pelvis_ty/value	/jointset/hip_r/hip_flexion_r/value	/jointset/hip_r/hip_adduction_r/value	/jointset/hip_r/hip_rotation_r/value	/jointset/back/lumbar_extension/value	/jointset/patellofemoral_r/patellar_flexion_r/value	/jointset/knee_r/knee_flexion_r/value	/jointset/knee_r/knee_adduction_r/value	/jointset/knee_r/knee_rotation_r/value	/jointset/ankle_r/ankle_angle_r/value	/jointset/subtalar_r/subtalar_angle_r/value	/jointset/ground_pelvis/pelvis_tilt/speed	/jointset/ground_pelvis/pelvis_tx/speed	/jointset/ground_pelvis/pelvis_ty/speed	/jointset/hip_r/hip_flexion_r/speed	/jointset/hip_r/hip_adduction_r/speed	/jointset/hip_r/hip_rotation_r/speed	/jointset/back/lumbar_extension/speed	/jointset/patellofemoral_r/patellar_flexion_r/speed	/jointset/knee_r/knee_flexion_r/speed	/jointset/knee_r/knee_adduction_r/speed	/jointset/knee_r/knee_rotation_r/speed	/jointset/ankle_r/ankle_angle_r/speed	/jointset/subtalar_r/subtalar_angle_r/speed	/forceset/tau_hip_flexion_r	/forceset/tau_hip_adduction_r	/forceset/tau_hip_rotation_r	/forceset/tau_knee_flexion_r	/forceset/tau_ankle_angle_r	/forceset/tau_subtalar_angle_r	/forceset/tau_lumbar_extension	lambda_cid13_p0	lambda_cid14_p0	lambda_cid14_p1	lambda_cid14_p2	lambda_cid14_p3	lambda_cid14_p4	lambda_cid14_p5	/jointset/ground_pelvis/pelvis_tilt/accel	/jointset/ground_pelvis/pelvis_tx/accel	/jointset/ground_pelvis/pelvis_ty/accel	/jointset/hip_r/hip_flexion_r/accel	/jointset/hip_r/hip_adduction_r/accel	/jointset/hip_r/hip_rotation_r/accel	/jointset/back/lumbar_extension/accel	/jointset/patellofemoral_r/patellar_flexion_r/accel	/jointset/knee_r/knee_flexion_r/accel	/jointset/knee_r/knee_adduction_r/accel	/jointset/knee_r/knee_rotation_r/accel	/jointset/ankle_r/ankle_angle_r/accel	/jointset/subtalar_r/subtalar_angle_r/accel	gamma_cid13_p0	gamma_cid14_p0	gamma_cid14_p1	gamma_cid14_p2	gamma_cid14_p3	gamma_cid14_p4	gamma_cid14_p5
1.5	-0.2158489791881048	0.009376058055308212	0.8100610088574273	0.9902502236920315	-0.2185950340981659	-0.1283059536688366	-0.3104865371891789	0.8662916998897413	0.8662916998895527	-0.02523590401437364	0.1745057199576854	0.2752316203008223	0.07568741774784386	0.4995846707437954	0.2099715402134773	0.5943079060457089	-2.319807577768674	0.008800978085599204	-0.2272753184742584	0.7009258686286506	-2.34200755506277	-2.342007555062363	0.4628511141136611	-0.0003936478259321888	-0.6348638064810278	-0.185267242188907	-0.1380618976857681	-0.01563096711539931	0.01156435558474516	-0.3506561363859474	0.09112274796610596	-0.005007655910122821	0.1722302012666058	-21.00579475332907	-10.90051910560182	-1.853595939547124	-1.791521166113335	-3.688711330820635	-642.5482579101342	57.6691468341864	0.4991656696729402	0.6629837497863007	-0.7507711053905484	-1.272059905743463	-0.1908892033433829	-0.9031542047001014	1.803624469491449	-1.383563889941128	-1.383563889941138	0.3657096903829981	-0.03319708382735121	-0.8063179866138098	-0.3208559557730566	1.75479514791826e-07	5.3671295865998e-08	-2.210218939090555e-06	3.975856727260318e-07	2.126759087072163e-07	2.336400684275912e-07	-1.270565984392008e-06
1.51	-0.2108286961129333	0.01150861315176846	0.8159652119928215	0.9669912581396835	-0.218517206851692	-0.1306258461566878	-0.3033885318929118	0.8428055842608895	0.8428055842607808	-0.02058934150701718	0.1745024788208229	0.2688434848799972	0.07381826044856181	0.5043889232883819	0.2165027081826216	0.5863969257118666	-2.33165786655433	0.006771062307049394	-0.2367010474220651	0.7185580201069639	-2.35487193700097	-2.354871937000492	0.4664424222450166	-0.000260690731176141	-0.6426558819552569	-0.1885091204894335	-0.1301689907402203	-0.01768663280482093	0.01141137910375802	-0.345933379539619	0.09345889141218509	-0.00589572801150383	0.1650789409319519	-22.54659073004917	-9.852018007343149	-1.881471145250907	-1.986089571455601	-3.958050346180165	-636.4148057707713	57.62038188788408	0.4586037474633926	0.6427253651068371	-0.8315914384584271	-1.092360880660209	-0.2082603015991423	-0.9617433155921488	1.725434909313174	-1.186366266489083	-1.186366266478351	0.3526215898302689	0.0355875517662484	-0.7494667103262815	-0.3179988948330053	1.783864857242272e-07	1.886910369417678e-08	-2.453337196420202e-06	1.148787916244998e-07	2.626505519992211e-07	2.093161131029479e-07	-1.351926598181929e-06
1.52	-0.2057628607721944	0.01370538833684572	0.8217862393366615	0.9436236201963414	-0.2184595222703012	-0.1330398881491714	-0.2961177201973992	0.8192011266285069	0.8192011266284844	-0.01590750987528614	0.1745003763440346	0.26238066582793	0.07191825534074638	0.5086951238574491	0.2228155579368789	0.5776727477349252	-2.341542055967326	0.004772445068964792	-0.2461052194007218	0.7354871484777578	-2.365675955768356	-2.365675955767807	0.4699049389891101	-0.0001659158108525471	-0.6498005327294386	-0.191436803895583	-0.1222760837946723	-0.01974229849424286	0.01125840262282265	-0.3412106226932888	0.09579503485826442	-0.006783800112884974	0.1579276805972983	-24.0716618156351	-8.80969719349528	-1.909399891532553	-2.181823509163353	-4.222943934082572	-630.3747794951033	57.62285079803539	0.3995552745690633	0.6193201068088966	-0.9134106340103582	-0.8788400312112321	-0.1846294952503787	-0.8988428108701695	1.663019847987533	-0.9714912557784073	-0.9714912557784297	0.3399514129305712	-0.04083351871374092	-0.6768330466043355	-0.2580169768977136	1.866108798799557e-07	-1.760919559600339e-08	-2.776298509796458e-06	-2.103522835245914e-07	3.208257492983826e-07	1.824367502543804e-07	-1.44089125915776e-06
1.53	-0.2006565658989827	0.01596416005147854	0.8275160869109487	0.9201669663944722	-0.2184216513145538	-0.1355484734148715	-0.2886813953419889	0.795498876703658	0.7954988767036882	-0.01119195914702787	0.1744995713215047	0.2558496933297396	0.06999057016682329	0.5124671066982815	0.2288973269316746	0.5681726407697667	-2.349453726751115	0.002798263455475654	-0.2555398003128037	0.7516368019749307	-2.37442637941996	-2.374426379419396	0.4732549668933765	-3.453315071253516e-05	-0.656283639258229	-0.1940625919066844	-0.1139724206440394	-0.02233454426401424	0.01106388406448885	-0.3374026550079638	0.09919574765676945	-0.007705482907150735	0.1504944373806808	-25.57565314894345	-7.449932184034072	-1.8995732387517	-2.379888823405204	-4.705053466648035	-624.7238677621517	57.82191171538626	0.3515033129376509	0.5964712917077311	-0.9869022809323026	-0.6970907760757826	-0.2047418041700647	-0.9547713003696003	1.569785006159996	-0.7747120352473433	-0.7747120352449979	0.3394639022917911	0.03402907739744448	-0.6173964815298512	-0.2598419081869363	2.004850362104695e-07	-5.586835869943994e-08	-3.184093070222236e-06	-5.807653148492138e-07	3.877140352301482e-07	1.528422669116434e-07	-1.53793522026862e-06
